# xmcd
#
# Track frame offsets:
# 150
# 29597
# 65667
# 90527
# 125717
# 158562
# 183570
# 217362
#
# Disc length: 3815 seconds
# Revision: 4
# Processed by: cddbd v1.5.1PL0 Copyright (c) Steve Scherf et al.
# Submitted via: MusicBin 0.4
#
DISCID=780ee508
DTITLE=Various Artist - The Blue Note Years, Vol. 4: Hard Bop and Beyond (d
DTITLE=isc 1)
DYEAR=1966
DGENRE=Jazz
TTITLE0=Dexter Gordon - Cheese Cake
TTITLE1=Joe Henderson - Blue Bossa
TTITLE2=Herbie Hancock - Cantaloupe Island
TTITLE3=Blue Mitchell - Fungii Mama
TTITLE4=Horace Silver - Song For My Father
TTITLE5=Pete LaRoca - Lazy Afternoon
TTITLE6=Wayne Shorter - Footprints
TTITLE7=Kenny Dorham - Una Mas
EXTD=
EXTT0=YEAR: 1962\nComposer: Dexter Gordon
EXTT1=YEAR: 1963\nComposer: Kenny Dorham
EXTT2=YEAR: 1964\nComposer: Herbie Hancock
EXTT3=YEAR: 1964\nComposer: Blue Mitchell
EXTT4=YEAR: 1964\nComposer: Horace Silver
EXTT5=YEAR: 1965\nComposer: LaTouche-Moross
EXTT6=YEAR: 1966\nComposer: Wayne Shorter
EXTT7=YEAR: 1963\nComposer: Kenny Dorham
PLAYORDER=
